<svg width="27" height="26" viewBox="0 0 27 26" xmlns="http://www.w3.org/2000/svg">
<path d="M13.851 10.957C14.8666 10.957 15.6565 10.1213 15.6377 9.2113C15.6565 8.3013 14.8854 7.44702 13.8698 7.44702C12.8918 7.44702 12.083 8.22702 12.083 9.19273C12.083 10.1584 12.8729 10.957 13.851 10.957Z"/>
<path d="M13.7008 0.00012207C6.44088 0.00012207 0.535156 5.83152 0.535156 13.0001C0.535156 20.1872 6.44088 26 13.7008 26C20.9795 26 26.8664 20.1686 26.8664 13.0001C26.8852 5.83152 20.9795 0.00012207 13.7008 0.00012207ZM13.8889 4.92153C16.2587 4.92153 18.2147 6.85295 18.1959 9.21151C18.1959 11.5886 16.2211 13.5015 13.8136 13.4643C11.4438 13.4272 9.54421 11.5144 9.54421 9.19293C9.54421 6.83437 11.4814 4.92153 13.8889 4.92153ZM18.7225 14.95C18.7225 14.9872 18.7037 15.0058 18.7037 15.0429C18.6473 15.4143 18.4592 15.7115 18.1395 15.9158C17.9326 16.0458 17.7069 16.1758 17.4812 16.2872C16.917 16.5658 16.3151 16.7886 15.6944 16.9372C15.6192 16.9558 15.6192 16.9558 15.6756 17.0115C16.0142 17.3458 16.3715 17.6986 16.7101 18.0329C17.1427 18.46 17.5941 18.9057 18.0266 19.3329C18.6473 19.9457 18.478 20.9672 17.6881 21.3386C17.5564 21.4129 17.406 21.4314 17.2555 21.4686C17.1803 21.4686 17.0862 21.4686 17.011 21.4686C16.9922 21.4686 16.9734 21.4686 16.9734 21.45C16.6725 21.4129 16.428 21.2643 16.2023 21.06C15.4499 20.3172 14.6788 19.5557 13.9265 18.8129C13.8701 18.7572 13.8701 18.7572 13.8136 18.8129C13.0425 19.5743 12.2902 20.3172 11.5191 21.0786C11.3874 21.2086 11.2557 21.3014 11.0865 21.3757C10.9736 21.4314 10.842 21.45 10.7291 21.4686C10.6539 21.4686 10.5787 21.4686 10.4846 21.4686C10.447 21.4686 10.4282 21.45 10.3906 21.45C9.88275 21.3572 9.54421 21.0786 9.39374 20.5957C9.24328 20.1129 9.35613 19.6857 9.71348 19.3329C10.0332 19.0172 10.3341 18.72 10.6539 18.4043C11.1241 17.94 11.5943 17.4758 12.0457 17.03C12.1021 16.9743 12.1021 16.9743 12.0269 16.9558C12.0081 16.9558 11.9704 16.9372 11.9516 16.9372C11.1053 16.7329 10.3341 16.3986 9.60063 15.9529C9.16805 15.6743 8.96116 15.2658 9.01758 14.7643C9.11162 13.8358 10.1649 13.3343 10.9548 13.8358C11.1053 13.9286 11.2369 14.0029 11.4062 14.0772C12.2714 14.5043 13.193 14.6901 14.1522 14.6343C14.6224 14.6158 15.0926 14.5229 15.5628 14.3743C16.0142 14.2258 16.4091 14.0215 16.8229 13.7986C17.5 13.4086 18.384 13.7243 18.6473 14.4486C18.6849 14.5601 18.7037 14.6529 18.7225 14.7643C18.7225 14.82 18.7225 14.8758 18.7225 14.95Z"/>
</svg>
