<svg width="209" height="60" viewBox="0 0 209 60" fill="none" xmlns="http://www.w3.org/2000/svg">
<g filter="url(#filter0_d)">
<path d="M80.9355 24.3369C80.9355 23.6126 80.7484 23.0674 80.374 22.7012C80.0078 22.3268 79.3364 21.9403 78.3599 21.5415C76.5776 20.866 75.2959 20.0767 74.5146 19.1733C73.7334 18.2619 73.3428 17.1877 73.3428 15.9507C73.3428 14.4533 73.8717 13.2529 74.9297 12.3496C75.9958 11.4382 77.3467 10.9824 78.9824 10.9824C80.0729 10.9824 81.0454 11.2144 81.8999 11.6782C82.7544 12.134 83.4095 12.7809 83.8652 13.6191C84.3291 14.4574 84.561 15.4095 84.561 16.4756H80.9844C80.9844 15.6455 80.8053 15.0148 80.4473 14.5835C80.0973 14.144 79.5887 13.9243 78.9214 13.9243C78.2948 13.9243 77.8065 14.1115 77.4565 14.4858C77.1066 14.8521 76.9316 15.3485 76.9316 15.9751C76.9316 16.4634 77.127 16.9069 77.5176 17.3057C77.9082 17.6963 78.5999 18.1032 79.5928 18.5264C81.3262 19.153 82.5835 19.922 83.3647 20.8335C84.1541 21.745 84.5488 22.9046 84.5488 24.3125C84.5488 25.8587 84.0565 27.0672 83.0718 27.938C82.0871 28.8088 80.7484 29.2441 79.0557 29.2441C77.9082 29.2441 76.8625 29.0081 75.9185 28.5361C74.9744 28.0641 74.2339 27.3887 73.6968 26.5098C73.1678 25.6309 72.9033 24.5933 72.9033 23.397H76.5044C76.5044 24.4224 76.7038 25.167 77.1025 25.6309C77.5013 26.0947 78.1523 26.3267 79.0557 26.3267C80.3089 26.3267 80.9355 25.6634 80.9355 24.3369ZM90.0054 15.792L90.103 17.0127C90.8761 16.0361 91.8975 15.5479 93.167 15.5479C94.4854 15.5479 95.4172 16.1419 95.9624 17.3301C96.7192 16.1419 97.7975 15.5479 99.1973 15.5479C101.508 15.5479 102.693 17.147 102.75 20.3452V29H99.2949V20.5649C99.2949 19.8 99.1891 19.2547 98.9775 18.9292C98.766 18.6037 98.4079 18.4409 97.9033 18.4409C97.2604 18.4409 96.7803 18.8356 96.4629 19.625L96.4873 20.04V29H93.0327V20.5894C93.0327 19.8325 92.931 19.2873 92.7275 18.9536C92.5241 18.6118 92.1619 18.4409 91.6411 18.4409C91.047 18.4409 90.575 18.7624 90.2251 19.4053V29H86.7705V15.792H90.0054ZM111.587 29C111.49 28.7965 111.392 28.4548 111.294 27.9746C110.676 28.821 109.838 29.2441 108.78 29.2441C107.673 29.2441 106.753 28.8779 106.021 28.1455C105.297 27.4131 104.935 26.465 104.935 25.3013C104.935 23.9178 105.374 22.8477 106.253 22.0908C107.14 21.334 108.414 20.9474 110.074 20.9312H111.124V19.8691C111.124 19.2751 111.022 18.856 110.818 18.6118C110.615 18.3677 110.318 18.2456 109.927 18.2456C109.065 18.2456 108.633 18.7502 108.633 19.7593H105.179C105.179 18.5386 105.634 17.5335 106.546 16.7441C107.465 15.9466 108.625 15.5479 110.025 15.5479C111.473 15.5479 112.592 15.9263 113.382 16.6831C114.179 17.4318 114.578 18.506 114.578 19.9058V26.1191C114.594 27.2585 114.757 28.1496 115.066 28.7925V29H111.587ZM109.549 26.5342C109.931 26.5342 110.257 26.4569 110.525 26.3022C110.794 26.1476 110.993 25.9645 111.124 25.7529V23.0063H110.293C109.708 23.0063 109.244 23.1935 108.902 23.5679C108.568 23.9422 108.401 24.4427 108.401 25.0693C108.401 26.0459 108.784 26.5342 109.549 26.5342ZM123.599 19.1245L122.452 19.0269C121.508 19.0269 120.869 19.4419 120.535 20.272V29H117.068V15.792H120.328L120.425 17.2202C120.971 16.1053 121.723 15.5479 122.684 15.5479C123.074 15.5479 123.392 15.6007 123.636 15.7065L123.599 19.1245ZM130.008 12.5449V15.792H131.778V18.3921H130.008V24.9473C130.008 25.4681 130.077 25.8262 130.215 26.0215C130.362 26.2168 130.639 26.3145 131.045 26.3145C131.379 26.3145 131.652 26.286 131.863 26.229L131.839 28.9146C131.253 29.1343 130.618 29.2441 129.935 29.2441C127.705 29.2441 126.578 27.9665 126.553 25.4111V18.3921H125.027V15.792H126.553V12.5449H130.008ZM139.615 29V11.2266H144.314C146.39 11.2266 148.042 11.8857 149.271 13.2041C150.507 14.5225 151.138 16.3291 151.163 18.624V21.5049C151.163 23.8405 150.544 25.6756 149.307 27.0103C148.078 28.3368 146.382 29 144.217 29H139.615ZM143.204 14.2173V26.0215H144.278C145.474 26.0215 146.316 25.7082 146.805 25.0815C147.293 24.4468 147.549 23.3563 147.574 21.8101V18.7217C147.574 17.0615 147.342 15.9059 146.878 15.2549C146.414 14.5957 145.625 14.2498 144.51 14.2173H143.204ZM158.914 29.2441C157.14 29.2441 155.757 28.7152 154.764 27.6572C153.771 26.5993 153.274 25.0856 153.274 23.1162V22.0664C153.274 19.9831 153.73 18.3758 154.642 17.2446C155.553 16.1134 156.859 15.5479 158.56 15.5479C160.22 15.5479 161.469 16.0809 162.308 17.147C163.146 18.2049 163.573 19.7756 163.589 21.8589V23.5557H156.717C156.766 24.5322 156.981 25.2484 157.364 25.7041C157.746 26.1517 158.336 26.3755 159.134 26.3755C160.289 26.3755 161.254 25.9808 162.027 25.1914L163.382 27.2788C162.959 27.8647 162.344 28.3408 161.539 28.707C160.733 29.0651 159.858 29.2441 158.914 29.2441ZM156.741 21.1387H160.196V20.8213C160.18 20.0319 160.049 19.4338 159.805 19.0269C159.561 18.62 159.138 18.4165 158.536 18.4165C157.933 18.4165 157.494 18.6322 157.217 19.0635C156.949 19.4948 156.79 20.1865 156.741 21.1387ZM169.705 24.1172L171.377 15.792H174.979L171.353 29H168.057L164.419 15.792H168.033L169.705 24.1172ZM180.228 29H176.761V15.792H180.228V29ZM176.602 12.374C176.602 11.8369 176.773 11.3975 177.115 11.0557C177.457 10.7139 177.912 10.543 178.482 10.543C179.052 10.543 179.507 10.7139 179.849 11.0557C180.191 11.3975 180.362 11.8369 180.362 12.374C180.362 12.903 180.191 13.3424 179.849 13.6924C179.515 14.0423 179.06 14.2173 178.482 14.2173C177.904 14.2173 177.444 14.0423 177.103 13.6924C176.769 13.3424 176.602 12.903 176.602 12.374ZM187.674 26.3755C188.675 26.3755 189.183 25.7244 189.2 24.4224H192.447C192.431 25.8628 191.987 27.0265 191.116 27.9136C190.245 28.8006 189.122 29.2441 187.747 29.2441C186.046 29.2441 184.748 28.7152 183.853 27.6572C182.958 26.5993 182.502 25.0409 182.486 22.9819V21.9321C182.486 19.8569 182.925 18.2741 183.804 17.1836C184.691 16.0931 185.997 15.5479 187.723 15.5479C189.179 15.5479 190.327 15.9995 191.165 16.9028C192.003 17.798 192.431 19.0716 192.447 20.7236H189.2C189.192 19.9831 189.069 19.4134 188.833 19.0146C188.597 18.6159 188.207 18.4165 187.662 18.4165C187.059 18.4165 186.628 18.6322 186.368 19.0635C186.107 19.4867 185.969 20.3127 185.953 21.5415V22.8843C185.953 23.9585 186.006 24.7113 186.111 25.1426C186.217 25.5658 186.392 25.8791 186.636 26.0825C186.88 26.2778 187.226 26.3755 187.674 26.3755ZM199.734 29.2441C197.96 29.2441 196.577 28.7152 195.584 27.6572C194.591 26.5993 194.095 25.0856 194.095 23.1162V22.0664C194.095 19.9831 194.55 18.3758 195.462 17.2446C196.373 16.1134 197.68 15.5479 199.38 15.5479C201.041 15.5479 202.29 16.0809 203.128 17.147C203.966 18.2049 204.393 19.7756 204.41 21.8589V23.5557H197.537C197.586 24.5322 197.802 25.2484 198.184 25.7041C198.567 26.1517 199.157 26.3755 199.954 26.3755C201.11 26.3755 202.074 25.9808 202.847 25.1914L204.202 27.2788C203.779 27.8647 203.165 28.3408 202.359 28.707C201.553 29.0651 200.678 29.2441 199.734 29.2441ZM197.562 21.1387H201.016V20.8213C201 20.0319 200.87 19.4338 200.625 19.0269C200.381 18.62 199.958 18.4165 199.356 18.4165C198.754 18.4165 198.314 18.6322 198.038 19.0635C197.769 19.4948 197.61 20.1865 197.562 21.1387Z" fill="white"/>
</g>
<g filter="url(#filter1_d)">
<path d="M74.9473 44.9609L76.2363 40.6602H77.7539L75.2344 47.9609C74.8477 49.0273 74.1914 49.5605 73.2656 49.5605C73.0586 49.5605 72.8301 49.5254 72.5801 49.4551V48.3535L72.8496 48.3711C73.209 48.3711 73.4785 48.3047 73.6582 48.1719C73.8418 48.043 73.9863 47.8242 74.0918 47.5156L74.2969 46.9707L72.0703 40.6602H73.6055L74.9473 44.9609ZM82.3418 45.248L84.2168 40.6602H85.998V47H84.5742V42.8047L82.8281 47H81.8613L80.1094 42.7812V47H78.6855V40.6602H80.4785L82.3418 45.248ZM92.9707 47H91.5469V44.4395H89.0801V47H87.6562V40.6602H89.0801V43.3027H91.5469V40.6602H92.9707V47ZM96.0234 42.6758H97.418C97.9375 42.6758 98.3906 42.7656 98.7773 42.9453C99.1641 43.125 99.457 43.377 99.6562 43.7012C99.8594 44.0254 99.9609 44.4023 99.9609 44.832C99.9609 45.4844 99.7305 46.0078 99.2695 46.4023C98.8086 46.7969 98.1953 46.9961 97.4297 47H94.5996V40.6602H96.0234V42.6758ZM102.439 47H101.016V40.6602H102.439V47ZM96.0234 43.8184V45.8633H97.4121C97.7598 45.8633 98.0332 45.7773 98.2324 45.6055C98.4355 45.4297 98.5371 45.1816 98.5371 44.8613C98.5371 44.541 98.4375 44.2891 98.2383 44.1055C98.043 43.918 97.7773 43.8223 97.4414 43.8184H96.0234ZM106.939 47.1172C106.037 47.1172 105.305 46.834 104.742 46.2676C104.184 45.6973 103.904 44.9395 103.904 43.9941V43.8184C103.904 43.1855 104.025 42.6211 104.268 42.125C104.514 41.625 104.857 41.2363 105.299 40.959C105.74 40.6816 106.232 40.543 106.775 40.543C107.639 40.543 108.305 40.8184 108.773 41.3691C109.246 41.9199 109.482 42.6992 109.482 43.707V44.2812H105.34C105.383 44.8047 105.557 45.2188 105.861 45.5234C106.17 45.8281 106.557 45.9805 107.021 45.9805C107.674 45.9805 108.205 45.7168 108.615 45.1895L109.383 45.9219C109.129 46.3008 108.789 46.5957 108.363 46.8066C107.941 47.0137 107.467 47.1172 106.939 47.1172ZM106.77 41.6855C106.379 41.6855 106.062 41.8223 105.82 42.0957C105.582 42.3691 105.43 42.75 105.363 43.2383H108.076V43.1328C108.045 42.6562 107.918 42.2969 107.695 42.0547C107.473 41.8086 107.164 41.6855 106.77 41.6855ZM118.57 41.791H116.514V47H115.09V41.791H113.057V40.6602H118.57V41.791ZM121.939 47.1172C121.037 47.1172 120.305 46.834 119.742 46.2676C119.184 45.6973 118.904 44.9395 118.904 43.9941V43.8184C118.904 43.1855 119.025 42.6211 119.268 42.125C119.514 41.625 119.857 41.2363 120.299 40.959C120.74 40.6816 121.232 40.543 121.775 40.543C122.639 40.543 123.305 40.8184 123.773 41.3691C124.246 41.9199 124.482 42.6992 124.482 43.707V44.2812H120.34C120.383 44.8047 120.557 45.2188 120.861 45.5234C121.17 45.8281 121.557 45.9805 122.021 45.9805C122.674 45.9805 123.205 45.7168 123.615 45.1895L124.383 45.9219C124.129 46.3008 123.789 46.5957 123.363 46.8066C122.941 47.0137 122.467 47.1172 121.939 47.1172ZM121.77 41.6855C121.379 41.6855 121.062 41.8223 120.82 42.0957C120.582 42.3691 120.43 42.75 120.363 43.2383H123.076V43.1328C123.045 42.6562 122.918 42.2969 122.695 42.0547C122.473 41.8086 122.164 41.6855 121.77 41.6855ZM127.869 42.7461L129.076 40.6602H130.658L128.719 43.7832L130.723 47H129.152L127.887 44.832L126.627 47H125.045L127.049 43.7832L125.115 40.6602H126.686L127.869 42.7461ZM136.998 47H135.574V44.4395H133.107V47H131.684V40.6602H133.107V43.3027H135.574V40.6602H136.998V47ZM138.252 43.7715C138.252 43.1504 138.375 42.5918 138.621 42.0957C138.867 41.5957 139.213 41.2129 139.658 40.9473C140.104 40.6777 140.615 40.543 141.193 40.543C142.049 40.543 142.742 40.8184 143.273 41.3691C143.809 41.9199 144.098 42.6504 144.141 43.5605L144.146 43.8945C144.146 44.5195 144.025 45.0781 143.783 45.5703C143.545 46.0625 143.201 46.4434 142.752 46.7129C142.307 46.9824 141.791 47.1172 141.205 47.1172C140.311 47.1172 139.594 46.8203 139.055 46.2266C138.52 45.6289 138.252 44.834 138.252 43.8418V43.7715ZM139.676 43.8945C139.676 44.5469 139.811 45.0586 140.08 45.4297C140.35 45.7969 140.725 45.9805 141.205 45.9805C141.686 45.9805 142.059 45.793 142.324 45.418C142.594 45.043 142.729 44.4941 142.729 43.7715C142.729 43.1309 142.59 42.623 142.312 42.248C142.039 41.873 141.666 41.6855 141.193 41.6855C140.729 41.6855 140.359 41.8711 140.086 42.2422C139.812 42.6094 139.676 43.1602 139.676 43.8945ZM150.645 40.6602V47H149.221V41.8086H147.428L147.311 44.0176C147.236 45.0801 147.031 45.8438 146.695 46.3086C146.363 46.7695 145.854 47 145.166 47H144.727L144.721 45.8164L145.014 45.7871C145.326 45.7441 145.553 45.5547 145.693 45.2188C145.838 44.8789 145.93 44.2617 145.969 43.3672L146.086 40.6602H150.645ZM151.893 43.7715C151.893 43.1504 152.016 42.5918 152.262 42.0957C152.508 41.5957 152.854 41.2129 153.299 40.9473C153.744 40.6777 154.256 40.543 154.834 40.543C155.689 40.543 156.383 40.8184 156.914 41.3691C157.449 41.9199 157.738 42.6504 157.781 43.5605L157.787 43.8945C157.787 44.5195 157.666 45.0781 157.424 45.5703C157.186 46.0625 156.842 46.4434 156.393 46.7129C155.947 46.9824 155.432 47.1172 154.846 47.1172C153.951 47.1172 153.234 46.8203 152.695 46.2266C152.16 45.6289 151.893 44.834 151.893 43.8418V43.7715ZM153.316 43.8945C153.316 44.5469 153.451 45.0586 153.721 45.4297C153.99 45.7969 154.365 45.9805 154.846 45.9805C155.326 45.9805 155.699 45.793 155.965 45.418C156.234 45.043 156.369 44.4941 156.369 43.7715C156.369 43.1309 156.23 42.623 155.953 42.248C155.68 41.873 155.307 41.6855 154.834 41.6855C154.369 41.6855 154 41.8711 153.727 42.2422C153.453 42.6094 153.316 43.1602 153.316 43.8945ZM163.213 41.8086H160.459V47H159.041V40.6602H163.213V41.8086ZM167.977 40.6602H169.395V47H167.977V42.7695L165.492 47H164.074V40.6602H165.492V44.8906L167.977 40.6602ZM174.867 40.6602H176.285V47H174.867V42.7695L172.383 47H170.965V40.6602H172.383V44.8906L174.867 40.6602Z" fill="#788891"/>
</g>
<g filter="url(#filter2_d)">
<path d="M36.0668 13.8665C37.1952 13.8665 38.1485 14.5936 38.5073 15.5998H47.4929C47.8517 14.5936 48.805 13.8665 49.9334 13.8665C51.3669 13.8665 52.5334 15.033 52.5334 16.4664C52.5334 17.8999 51.3669 19.0664 49.9334 19.0664C48.805 19.0664 47.8517 18.3392 47.4929 17.3331H38.5064C38.1476 18.3392 37.1943 19.0664 36.0659 19.0664C34.6324 19.0664 33.4659 17.8999 33.4659 16.4664C33.4659 15.033 34.6333 13.8665 36.0668 13.8665ZM49.9334 17.3331C50.411 17.3331 50.8001 16.9448 50.8001 16.4664C50.8001 15.988 50.411 15.5998 49.9334 15.5998C49.4559 15.5998 49.0668 15.988 49.0668 16.4664C49.0668 16.9448 49.4559 17.3331 49.9334 17.3331ZM36.0668 17.3331C36.5443 17.3331 36.9334 16.9448 36.9334 16.4664C36.9334 15.988 36.5443 15.5998 36.0668 15.5998C35.5892 15.5998 35.2001 15.988 35.2001 16.4664C35.2001 16.9448 35.5892 17.3331 36.0668 17.3331Z" fill="#00B2FF"/>
<path d="M29.1333 19.2259V13.8665C29.1333 13.636 29.2243 13.4158 29.3872 13.2538L32.8539 9.78716C33.0159 9.62423 33.2369 9.53323 33.4666 9.53323H36.2261C36.5849 8.52705 37.5382 7.79993 38.6666 7.79993C40.1001 7.79993 41.2666 8.96644 41.2666 10.3999C41.2666 11.8333 40.1001 12.9998 38.6666 12.9998C37.5382 12.9998 36.5849 12.2727 36.2261 11.2665H33.8254L30.8666 14.2253V19.2259C31.8728 19.5847 32.5999 20.538 32.5999 21.6664C32.5999 23.0998 31.4334 24.2663 29.9999 24.2663C28.5665 24.2663 27.3999 23.0998 27.3999 21.6664C27.3999 20.538 28.1271 19.5847 29.1333 19.2259ZM38.6666 11.2665C39.1441 11.2665 39.5333 10.8783 39.5333 10.3999C39.5333 9.92149 39.1441 9.53323 38.6666 9.53323C38.1891 9.53323 37.7999 9.92149 37.7999 10.3999C37.7999 10.8783 38.1891 11.2665 38.6666 11.2665ZM29.9999 22.533C30.4775 22.533 30.8666 22.1448 30.8666 21.6664C30.8666 21.188 30.4775 20.7997 29.9999 20.7997C29.5224 20.7997 29.1333 21.188 29.1333 21.6664C29.1333 22.1448 29.5224 22.533 29.9999 22.533Z" fill="#00B2FF"/>
<path d="M13.5333 22.533C13.9337 22.533 14.3081 22.6309 14.647 22.7938L16.1333 21.3075V12.9998C16.1333 12.7693 16.2243 12.5491 16.3873 12.3871L25.0609 3.7136C24.8979 3.37474 24.8 3.00035 24.8 2.59996C24.8 1.16651 25.9665 0 27.4 0C28.8335 0 30 1.16651 30 2.59996C30 4.0334 28.8335 5.19991 27.4 5.19991C26.9996 5.19991 26.6252 5.10198 26.2863 4.93905L17.8667 13.3586V21.6663C17.8667 21.8968 17.7757 22.117 17.6127 22.279L15.8725 24.0193C16.0354 24.3581 16.1333 24.7325 16.1333 25.1329C16.1333 26.5664 14.9668 27.7329 13.5333 27.7329C12.0999 27.7329 10.9333 26.5664 10.9333 25.1329C10.9333 23.6995 12.0999 22.533 13.5333 22.533ZM27.4 3.46661C27.8775 3.46661 28.2667 3.07835 28.2667 2.59996C28.2667 2.12156 27.8775 1.7333 27.4 1.7333C26.9225 1.7333 26.5333 2.12156 26.5333 2.59996C26.5333 3.07835 26.9225 3.46661 27.4 3.46661ZM13.5333 25.9996C14.0109 25.9996 14.4 25.6113 14.4 25.1329C14.4 24.6545 14.0109 24.2663 13.5333 24.2663C13.0558 24.2663 12.6667 24.6545 12.6667 25.1329C12.6667 25.6113 13.0558 25.9996 13.5333 25.9996Z" fill="#00B2FF"/>
<path d="M5.73328 12.2926V8.66652C5.73328 8.43599 5.82428 8.21586 5.98722 8.0538L12.0539 1.98723C12.216 1.8243 12.437 1.7333 12.6666 1.7333H17.1594C17.5182 0.727121 18.4716 0 19.6 0C21.0334 0 22.2 1.16651 22.2 2.59996C22.2 4.0334 21.0334 5.19991 19.6 5.19991C18.4716 5.19991 17.5182 4.47279 17.1594 3.46661H13.0254L7.46662 9.02532V12.2926C8.47282 12.6514 9.19995 13.6047 9.19995 14.7331C9.19995 16.1665 8.03342 17.333 6.59995 17.333C5.16648 17.333 3.99995 16.1665 3.99995 14.7331C3.99995 13.6047 4.72709 12.6514 5.73328 12.2926ZM19.6 3.46661C20.0775 3.46661 20.4666 3.07835 20.4666 2.59996C20.4666 2.12156 20.0775 1.7333 19.6 1.7333C19.1224 1.7333 18.7333 2.12156 18.7333 2.59996C18.7333 3.07835 19.1224 3.46661 19.6 3.46661ZM6.59995 15.5997C7.07748 15.5997 7.46662 15.2115 7.46662 14.7331C7.46662 14.2547 7.07748 13.8664 6.59995 13.8664C6.12242 13.8664 5.73328 14.2547 5.73328 14.7331C5.73328 15.2115 6.12242 15.5997 6.59995 15.5997Z" fill="#00B2FF"/>
<path d="M17.8658 46.9595V34.5066C16.8604 34.1478 16.1333 33.1945 16.1333 32.0661C16.1333 30.6327 17.2998 29.4661 18.7333 29.4661C19.8617 29.4661 20.815 30.1933 21.1738 31.1995H30.1594C30.5182 30.1933 31.4716 29.4661 32.6 29.4661C33.7284 29.4661 34.6817 30.1933 35.0405 31.1995H40.0412L43.2608 27.9798C43.0979 27.641 43 27.2666 43 26.8662C43 25.4327 44.1665 24.2662 45.6 24.2662C47.0334 24.2662 48.2 25.4327 48.2 26.8662C48.2 28.2996 47.0334 29.4661 45.6 29.4661C45.1996 29.4661 44.8252 29.3682 44.4863 29.2053L41.0127 32.6788C40.8506 32.8418 40.6296 32.9328 40.4 32.9328H35.0405C34.6817 33.9389 33.7284 34.6661 32.6 34.6661C31.4716 34.6661 30.5182 33.9389 30.1594 32.9328H21.173C20.9112 33.6668 20.3332 34.2449 19.5991 34.5066V46.9595C20.6053 47.3183 21.3324 48.2716 21.3324 49.4C21.3324 50.8335 20.1659 52 18.7324 52C17.299 52 16.1324 50.8335 16.1324 49.4C16.1324 48.2716 16.8596 47.3183 17.8658 46.9595ZM45.6 27.7328C46.0775 27.7328 46.4666 27.3446 46.4666 26.8662C46.4666 26.3878 46.0775 25.9995 45.6 25.9995C45.1224 25.9995 44.7333 26.3878 44.7333 26.8662C44.7333 27.3446 45.1224 27.7328 45.6 27.7328ZM32.6 32.9328C33.0775 32.9328 33.4666 32.5445 33.4666 32.0661C33.4666 31.5877 33.0775 31.1995 32.6 31.1995C32.1224 31.1995 31.7333 31.5877 31.7333 32.0661C31.7333 32.5445 32.1224 32.9328 32.6 32.9328ZM18.7333 50.2658C19.2108 50.2658 19.6 49.8775 19.6 49.3991C19.6 48.9208 19.2108 48.5325 18.7333 48.5325C18.2558 48.5325 17.8666 48.9208 17.8666 49.3991C17.8666 49.8775 18.2558 50.2658 18.7333 50.2658ZM18.7333 32.9328C19.2108 32.9328 19.6 32.5445 19.6 32.0661C19.6 31.5877 19.2108 31.1995 18.7333 31.1995C18.2558 31.1995 17.8666 31.5877 17.8666 32.0661C17.8666 32.5445 18.2558 32.9328 18.7333 32.9328Z" fill="#00B2FF"/>
<path d="M22.2 17.4925V14.7331C22.2 14.5026 22.291 14.2824 22.4539 14.1204L32.8609 3.7136C32.6979 3.37474 32.6 3.00035 32.6 2.59996C32.6 1.16651 33.7665 0 35.2 0C36.3284 0 37.2817 0.727121 37.6405 1.7333H41.2667C41.7451 1.7333 42.1333 2.1207 42.1333 2.59996V4.84112L45.353 8.06073C45.6919 7.8978 46.0663 7.79987 46.4667 7.79987C47.9001 7.79987 49.0667 8.96638 49.0667 10.3998C49.0667 11.8333 47.9001 12.9998 46.4667 12.9998C45.0332 12.9998 43.8667 11.8333 43.8667 10.3998C43.8667 9.99943 43.9646 9.62504 44.1275 9.28618L40.6539 5.81264C40.491 5.65057 40.4 5.43044 40.4 5.19991V3.46661H37.6405C37.2817 4.47279 36.3284 5.19991 35.2 5.19991C34.7996 5.19991 34.4252 5.10198 34.0863 4.93905L23.9333 15.0919V17.4925C24.9395 17.8513 25.6667 18.8046 25.6667 19.933C25.6667 21.3664 24.5001 22.533 23.0667 22.533C21.6332 22.533 20.4667 21.3664 20.4667 19.933C20.4667 18.8046 21.1938 17.8513 22.2 17.4925ZM46.4667 11.2665C46.9442 11.2665 47.3333 10.8782 47.3333 10.3998C47.3333 9.92143 46.9442 9.53317 46.4667 9.53317C45.9891 9.53317 45.6 9.92143 45.6 10.3998C45.6 10.8782 45.9891 11.2665 46.4667 11.2665ZM35.2 3.46661C35.6775 3.46661 36.0667 3.07835 36.0667 2.59996C36.0667 2.12156 35.6775 1.7333 35.2 1.7333C34.7225 1.7333 34.3333 2.12156 34.3333 2.59996C34.3333 3.07835 34.7225 3.46661 35.2 3.46661ZM23.0667 20.7997C23.5442 20.7997 23.9333 20.4114 23.9333 19.933C23.9333 19.4546 23.5442 19.0663 23.0667 19.0663C22.5891 19.0663 22.2 19.4546 22.2 19.933C22.2 20.4114 22.5891 20.7997 23.0667 20.7997Z" fill="#00B2FF"/>
<path d="M24.8 24.2663C25.9284 24.2663 26.8817 24.9934 27.2405 25.9996H37.4412L42.3873 21.0536C42.5493 20.8906 42.7703 20.7997 43 20.7997H52.1745L54.2667 18.7076V11.6253L47.5803 4.93905C47.2415 5.10198 46.8671 5.19991 46.4667 5.19991C45.0332 5.19991 43.8667 4.0334 43.8667 2.59996C43.8667 1.16651 45.0332 0 46.4667 0C47.9001 0 49.0667 1.16651 49.0667 2.59996C49.0667 3.00035 48.9687 3.37474 48.8058 3.7136L55.7461 10.6538C55.909 10.8158 56 11.0359 56 11.2665V19.0663C56 19.2969 55.909 19.517 55.7461 19.6791L53.1461 22.279C52.984 22.442 52.763 22.533 52.5333 22.533H43.3588L38.4127 27.4789C38.2507 27.6419 38.0297 27.7329 37.8 27.7329H27.2405C26.8817 28.7391 25.9284 29.4662 24.8 29.4662C23.3665 29.4662 22.2 28.2997 22.2 26.8662C22.2 25.4328 23.3665 24.2663 24.8 24.2663ZM46.4667 1.7333C45.9891 1.7333 45.6 2.12156 45.6 2.59996C45.6 3.07835 45.9891 3.46661 46.4667 3.46661C46.9442 3.46661 47.3333 3.07835 47.3333 2.59996C47.3333 2.12156 46.9442 1.7333 46.4667 1.7333ZM24.8 27.7329C25.2775 27.7329 25.6667 27.3446 25.6667 26.8662C25.6667 26.3878 25.2775 25.9996 24.8 25.9996C24.3225 25.9996 23.9333 26.3878 23.9333 26.8662C23.9333 27.3446 24.3225 27.7329 24.8 27.7329Z" fill="#00B2FF"/>
<path d="M6.59997 20.7997C7.00037 20.7997 7.37477 20.8976 7.71363 21.0606L10.9333 17.841V12.8404C9.9271 12.4816 9.19997 11.5283 9.19997 10.3999C9.19997 8.96644 10.3665 7.79993 11.8 7.79993C13.2334 7.79993 14.4 8.96644 14.4 10.3999C14.4 11.5283 13.6728 12.4816 12.6666 12.8404V18.1998C12.6666 18.4303 12.5756 18.6504 12.4127 18.8125L8.9391 22.286C9.10204 22.6249 9.19997 22.9993 9.19997 23.3997C9.19997 24.528 8.47283 25.4814 7.46663 25.8402V26.5075L14.146 33.1868C14.309 33.3488 14.4 33.569 14.4 33.7995V34.8256C15.4062 35.1844 16.1333 36.1377 16.1333 37.2661C16.1333 38.3945 15.4062 39.3478 14.4 39.7066V41.7597C15.4062 42.1185 16.1333 43.0718 16.1333 44.2002C16.1333 45.6336 14.9668 46.8001 13.5333 46.8001C12.0998 46.8001 10.9333 45.6336 10.9333 44.2002C10.9333 43.0718 11.6604 42.1185 12.6666 41.7597V39.7066C11.6604 39.3478 10.9333 38.3945 10.9333 37.2661C10.9333 36.1377 11.6604 35.1844 12.6666 34.8256V34.1583L5.98723 27.479C5.8243 27.3169 5.7333 27.0968 5.7333 26.8663V25.8402C4.7271 25.4814 3.99997 24.528 3.99997 23.3997C3.99997 21.9662 5.1665 20.7997 6.59997 20.7997ZM11.8 11.2665C12.2775 11.2665 12.6666 10.8783 12.6666 10.3999C12.6666 9.92149 12.2775 9.53323 11.8 9.53323C11.3224 9.53323 10.9333 9.92149 10.9333 10.3999C10.9333 10.8783 11.3224 11.2665 11.8 11.2665ZM13.5333 45.066C14.0108 45.066 14.4 44.6777 14.4 44.1993C14.4 43.7209 14.0108 43.3327 13.5333 43.3327C13.0558 43.3327 12.6666 43.7209 12.6666 44.1993C12.6666 44.6777 13.0558 45.066 13.5333 45.066ZM13.5333 38.1328C14.0108 38.1328 14.4 37.7445 14.4 37.2661C14.4 36.7877 14.0108 36.3995 13.5333 36.3995C13.0558 36.3995 12.6666 36.7877 12.6666 37.2661C12.6666 37.7445 13.0558 38.1328 13.5333 38.1328ZM6.59997 24.2663C7.0775 24.2663 7.46663 23.8781 7.46663 23.3997C7.46663 22.9213 7.0775 22.533 6.59997 22.533C6.12243 22.533 5.7333 22.9213 5.7333 23.3997C5.7333 23.8781 6.12243 24.2663 6.59997 24.2663Z" fill="#00B2FF"/>
</g>
<defs>
<filter id="filter0_d" x="68.9033" y="10.543" width="139.506" height="26.7012" filterUnits="userSpaceOnUse" color-interpolation-filters="sRGB">
<feFlood flood-opacity="0" result="BackgroundImageFix"/>
<feColorMatrix in="SourceAlpha" type="matrix" values="0 0 0 0 0 0 0 0 0 0 0 0 0 0 0 0 0 0 127 0"/>
<feOffset dy="4"/>
<feGaussianBlur stdDeviation="2"/>
<feColorMatrix type="matrix" values="0 0 0 0 0 0 0 0 0 0 0 0 0 0 0 0 0 0 0.25 0"/>
<feBlend mode="normal" in2="BackgroundImageFix" result="effect1_dropShadow"/>
<feBlend mode="normal" in="SourceGraphic" in2="effect1_dropShadow" result="shape"/>
</filter>
<filter id="filter1_d" x="68.0703" y="40.543" width="112.215" height="17.0176" filterUnits="userSpaceOnUse" color-interpolation-filters="sRGB">
<feFlood flood-opacity="0" result="BackgroundImageFix"/>
<feColorMatrix in="SourceAlpha" type="matrix" values="0 0 0 0 0 0 0 0 0 0 0 0 0 0 0 0 0 0 127 0"/>
<feOffset dy="4"/>
<feGaussianBlur stdDeviation="2"/>
<feColorMatrix type="matrix" values="0 0 0 0 0 0 0 0 0 0 0 0 0 0 0 0 0 0 0.25 0"/>
<feBlend mode="normal" in2="BackgroundImageFix" result="effect1_dropShadow"/>
<feBlend mode="normal" in="SourceGraphic" in2="effect1_dropShadow" result="shape"/>
</filter>
<filter id="filter2_d" x="0" y="0" width="60" height="60" filterUnits="userSpaceOnUse" color-interpolation-filters="sRGB">
<feFlood flood-opacity="0" result="BackgroundImageFix"/>
<feColorMatrix in="SourceAlpha" type="matrix" values="0 0 0 0 0 0 0 0 0 0 0 0 0 0 0 0 0 0 127 0"/>
<feOffset dy="4"/>
<feGaussianBlur stdDeviation="2"/>
<feColorMatrix type="matrix" values="0 0 0 0 0 0 0 0 0 0 0 0 0 0 0 0 0 0 0.25 0"/>
<feBlend mode="normal" in2="BackgroundImageFix" result="effect1_dropShadow"/>
<feBlend mode="normal" in="SourceGraphic" in2="effect1_dropShadow" result="shape"/>
</filter>
</defs>
</svg>
