<svg width="0" height="0" class="hidden">
  <symbol fill="none" xmlns="http://www.w3.org/2000/svg" viewBox="0 0 10 7" id="icon-accept">
    <path d="M1 2.667L4.2 6 9 1" stroke="#fff"></path>
  </symbol>
  <symbol fill="none" xmlns="http://www.w3.org/2000/svg" viewBox="0 0 6 9" id="icon-arrow">
    <path d="M1 8.5l4-4-4-4" stroke="#fff" stroke-linejoin="round"></path>
  </symbol>
  <symbol xmlns="http://www.w3.org/2000/svg" viewBox="0 0 27 27" id="icon-facebook">
    <path fill-rule="evenodd" clip-rule="evenodd" d="M27 13.5C27 6.045 20.956 0 13.5 0S0 6.045 0 13.5C0 20.956 6.044 27 13.5 27S27 20.956 27 13.5zM16.884 9.294h-1.74c-.469 0-.798.397-.798.891v.775h2.485l-.402 2.517h-2.083v6.747h-2.543v-6.747h-1.688V10.96h1.688V9.678h.004c.045-1.463.553-2.856 3.031-2.944v-.009h2.046v2.57z"></path>
  </symbol>
  <symbol xmlns="http://www.w3.org/2000/svg" viewBox="0 0 31 26" id="icon-incognita">
    <path d="M15.77 8.185a.593.593 0 10.002 1.187.593.593 0 00-.002-1.187z"></path>
    <path d="M29.148 11.748h-2.303C25.63 8.27 23.869 2.172 20.677.446c-1.596-.862-3.105-.26-3.672.963a1.34 1.34 0 01-1.235.794 1.34 1.34 0 01-1.236-.793c-.547-1.182-2.02-1.84-3.56-1.09-3.242 1.58-5.056 7.924-6.28 11.428H2.391c-.981 0-1.776.797-1.776 1.782a1.78 1.78 0 001.776 1.781h26.757c.981 0 1.776-.797 1.776-1.781a1.78 1.78 0 00-1.776-1.782zM6.774 9.373h6.628a.593.593 0 000-1.188H7.188c1.784-4.944 3.451-6.381 4.303-6.796.93-.452 1.694-.074 1.97.522a2.523 2.523 0 002.309 1.48c.978 0 1.875-.547 2.308-1.48.284-.613 1.053-.952 2.037-.42.856.463 2.518 1.948 4.236 6.694h-6.214a.593.593 0 000 1.188h6.628l.825 2.375H5.95c.214-.614.524-1.505.825-2.375zm22.374 4.75H2.391a.594.594 0 010-1.187h26.757a.593.593 0 010 1.188zm-14.562 3.564H5.114a.593.593 0 00-.592.593v2.376C4.522 23.603 6.912 26 9.85 26a5.316 5.316 0 004.98-3.442 2.265 2.265 0 011.88 0A5.316 5.316 0 0021.69 26c2.937 0 5.327-2.398 5.327-5.345V18.28a.593.593 0 00-.592-.594h-9.471a.593.593 0 00-.592.594v.594h-1.184v-.594a.593.593 0 00-.592-.593zM9.85 24.812a4.154 4.154 0 01-4.144-4.156v-1.782h8.288v1.782a4.145 4.145 0 01-4.144 4.156zm7.696-5.938h8.287v1.782c0 2.292-1.859 4.156-4.143 4.156a4.145 4.145 0 01-4.144-4.156v-1.782zm-1.184 1.188v.594c0 .19.01.379.03.566a3.455 3.455 0 00-1.245 0c.02-.188.03-.377.03-.566v-.594h1.185z"></path>
    <path d="M9.85 22.437c-.98 0-1.776-.8-1.776-1.781a.593.593 0 10-1.184 0 2.968 2.968 0 002.96 2.969.593.593 0 000-1.188zm11.84 1.188a2.968 2.968 0 002.96-2.97.593.593 0 10-1.184 0 1.78 1.78 0 01-1.776 1.782.593.593 0 000 1.188z"></path>
  </symbol>
  <symbol xmlns="http://www.w3.org/2000/svg" viewBox="0 0 19 14" id="icon-mail">
    <path d="M16.68 0H2.323C1.042 0 0 1.009 0 2.25v9.5C0 12.991 1.042 14 2.323 14h14.354C17.958 14 19 12.991 19 11.75V2.253C19.004 1.013 17.962 0 16.68 0zm1.262 11.75c0 .674-.566 1.222-1.262 1.222H2.323c-.695 0-1.262-.548-1.262-1.222V2.253c0-.673.567-1.221 1.262-1.221h14.354c.695 0 1.262.548 1.262 1.221v9.497h.003z"></path>
    <path d="M11.983 6.882l4.646-4.035a.505.505 0 00.04-.727.546.546 0 00-.751-.038L9.51 7.651 8.26 6.57c-.004-.004-.008-.008-.008-.012a.78.78 0 00-.087-.072L3.078 2.078a.542.542 0 00-.75.042.502.502 0 00.043.727l4.702 4.07L2.39 11.16a.504.504 0 00-.023.727.541.541 0 00.75.027l4.754-4.305L9.16 8.724a.54.54 0 00.708-.004l1.325-1.15 4.725 4.348c.102.095.236.14.366.14a.537.537 0 00.385-.16.504.504 0 00-.02-.726l-4.666-4.29z"></path>
  </symbol>
  <symbol xmlns="http://www.w3.org/2000/svg" viewBox="0 0 27 26" id="icon-odnoklassniki">
    <path d="M13.851 10.957c1.016 0 1.805-.836 1.787-1.746.018-.91-.753-1.764-1.768-1.764-.978 0-1.787.78-1.787 1.746 0 .965.79 1.764 1.768 1.764z"></path>
    <path d="M13.7 0C6.44 0 .536 5.832.536 13c0 7.187 5.906 13 13.166 13 7.279 0 13.165-5.831 13.165-13 .02-7.168-5.886-13-13.165-13zm.189 4.922c2.37 0 4.326 1.931 4.307 4.29 0 2.377-1.975 4.29-4.382 4.252-2.37-.037-4.27-1.95-4.27-4.271 0-2.359 1.937-4.271 4.345-4.271zm4.834 10.028c0 .037-.02.056-.02.093a1.213 1.213 0 01-.563.873 7.49 7.49 0 01-.659.371 8.544 8.544 0 01-1.787.65c-.075.019-.075.019-.018.075l1.034 1.02c.433.428.884.874 1.317 1.3.62.614.451 1.635-.339 2.007-.132.074-.282.092-.432.13h-.245c-.019 0-.038 0-.038-.019-.3-.037-.545-.186-.77-.39l-2.276-2.247c-.057-.056-.057-.056-.113 0l-2.295 2.266a1.38 1.38 0 01-.433.297c-.112.055-.244.074-.357.093h-.244c-.038 0-.057-.019-.094-.019-.508-.093-.847-.371-.997-.854-.15-.483-.038-.91.32-1.263l.94-.929 1.392-1.374c.056-.056.056-.056-.02-.074-.018 0-.056-.019-.074-.019a8.183 8.183 0 01-2.351-.984c-.433-.279-.64-.687-.583-1.189.094-.928 1.147-1.43 1.937-.928.15.093.282.167.451.241a5.412 5.412 0 002.746.557c.47-.018.94-.111 1.41-.26.452-.148.847-.353 1.26-.575.678-.39 1.562-.075 1.825.65.038.111.057.204.076.315v.186z"></path>
  </symbol>
  <symbol xmlns="http://www.w3.org/2000/svg" viewBox="0 0 32 32" id="icon-people">
    <path d="M28.555 25.502a2.88 2.88 0 00.54-1.684v-3.756a.622.622 0 00-.619-.625h-2.768c-1.28 0-2.322 1.051-2.322 2.342v2.04c0 .627.201 1.208.54 1.682-.423.07-.83.206-1.21.407a5.263 5.263 0 00-3.892-2.34l-.019-.005c.58-.653.933-1.515.933-2.459V16a.622.622 0 00-.62-.625h-3.762c-1.617 0-2.932 1.327-2.932 2.958v2.771c0 .944.353 1.806.933 2.459l-.02.005a5.263 5.263 0 00-3.891 2.34 3.97 3.97 0 00-1.211-.407 2.88 2.88 0 00.54-1.683v-3.756a.622.622 0 00-.619-.625H5.387c-1.28 0-2.321 1.051-2.321 2.342v2.04c0 .628.201 1.21.541 1.683a4.07 4.07 0 00-3.386 4.021v1.852c0 .345.278.625.62.625h30.48c.342 0 .62-.28.62-.625v-1.852a4.07 4.07 0 00-3.386-4.02zM4.305 21.78c0-.602.486-1.091 1.082-1.091h2.15v.76a.675.675 0 01-.671.678h-2.56v-.347zm0 1.596h2.56c.237 0 .463-.043.671-.123v.566c0 .899-.724 1.63-1.615 1.63s-1.616-.731-1.616-1.63v-.443zm2.015 3.323l-.4.403-.399-.403h.8zm2.237 2.16v1.892H1.46v-1.227a2.822 2.822 0 012.347-2.787l1.676 1.69a.617.617 0 00.876 0l1.677-1.69c.296.048.58.144.846.285a5.331 5.331 0 00-.325 1.837zm7.524-5.314c-1.333 0-2.418-1.094-2.418-2.44v-.826h3.702c.41 0 .797-.105 1.134-.291v1.117c0 1.346-1.084 2.44-2.418 2.44zm1.08 1.25l-1.08 1.09-1.08-1.09h2.16zm-3.499-6.46c0-.943.76-1.709 1.694-1.709h3.143v1.259a1.14 1.14 0 01-1.134 1.144h-3.702v-.695zm8.704 12.416H9.796V29.5h4.034c.342 0 .62-.28.62-.625a.622.622 0 00-.62-.625H9.841c.266-1.776 1.675-3.178 3.445-3.418l2.357 2.377a.615.615 0 00.876 0l2.357-2.377c1.967.266 3.49 1.97 3.49 4.026v1.892zm2.26-8.97c0-.603.485-1.093 1.082-1.093h2.149v.762a.675.675 0 01-.671.677h-2.56v-.347zm0 1.595h2.56c.236 0 .462-.043.67-.123v.566c0 .899-.724 1.63-1.615 1.63-.89 0-1.616-.731-1.616-1.63v-.443zm2.014 3.323l-.399.403-.4-.403h.8zm-3.035 4.052v-1.892a5.33 5.33 0 00-.325-1.837c.265-.141.55-.237.846-.286l1.677 1.692a.617.617 0 00.876 0l1.676-1.691a2.822 2.822 0 012.347 2.787v1.227h-7.097zM19.134 4.084a.616.616 0 00-.877 0l-3.04 3.067-1.314-1.326a.616.616 0 00-.876 0 .63.63 0 000 .884l1.752 1.767a.617.617 0 00.877 0l3.478-3.509a.629.629 0 000-.883z"></path>
    <path d="M18.614.542a.617.617 0 00-.818.316.627.627 0 00.314.826 5.04 5.04 0 012.957 4.596c0 2.773-2.236 5.03-4.986 5.03-2.749 0-4.986-2.257-4.986-5.03a5.045 5.045 0 012.936-4.587.627.627 0 00.31-.827.617.617 0 00-.82-.312A6.298 6.298 0 009.857 6.28c0 3.463 2.793 6.28 6.225 6.28 3.433 0 6.225-2.817 6.225-6.28A6.293 6.293 0 0018.614.542z"></path>
    <path d="M16.103 0h-.022c-.342 0-.62.28-.62.625s.278.625.62.625h.019a.623.623 0 00.62-.622.622.622 0 00-.617-.628zm.416 28.433a.621.621 0 00-.438-.183.622.622 0 00-.62.625.622.622 0 00.62.625.621.621 0 00.62-.625.632.632 0 00-.182-.442z"></path>
  </symbol>
  <symbol xmlns="http://www.w3.org/2000/svg" viewBox="0 0 18 18" id="icon-phone">
    <path d="M14.233 11.15c-.369-.383-.814-.588-1.286-.588-.468 0-.917.2-1.3.585l-1.203 1.196c-.099-.053-.198-.102-.293-.152a4.832 4.832 0 01-.377-.201c-1.126-.714-2.15-1.645-3.13-2.85-.476-.6-.796-1.105-1.028-1.618.312-.285.601-.581.883-.866l.32-.323c.798-.798.798-1.831 0-2.629l-1.04-1.037c-.117-.118-.24-.24-.353-.36A17.952 17.952 0 004.71 1.6c-.369-.365-.81-.559-1.274-.559-.464 0-.913.194-1.294.559l-.007.007L.84 2.91a2.778 2.778 0 00-.825 1.767c-.092 1.11.236 2.142.487 2.819.616 1.66 1.537 3.198 2.91 4.847a17.9 17.9 0 005.962 4.662c.875.414 2.043.904 3.348.987.08.004.163.008.24.008.878 0 1.617-.315 2.195-.942.004-.008.011-.012.015-.02.198-.239.426-.455.666-.687.163-.156.33-.319.494-.49.377-.391.575-.847.575-1.314 0-.471-.202-.924-.586-1.303l-2.089-2.094zm1.362 4c-.004 0-.004.005 0 0-.148.16-.3.305-.464.464a9.977 9.977 0 00-.734.76c-.384.41-.837.604-1.43.604-.058 0-.119 0-.176-.004-1.13-.072-2.18-.513-2.967-.889a16.898 16.898 0 01-5.616-4.391C2.911 10.132 2.043 8.689 1.47 7.139c-.354-.946-.483-1.683-.426-2.379.038-.444.21-.813.525-1.128l1.297-1.295c.187-.175.385-.27.579-.27.24 0 .433.144.555.266l.011.011c.233.217.453.44.685.68.118.122.24.243.362.369L6.095 4.43c.404.403.404.775 0 1.178-.11.11-.217.22-.327.326-.32.327-.624.63-.955.927-.007.008-.015.012-.019.02-.327.326-.266.645-.198.862l.012.034c.27.653.65 1.269 1.229 2.002l.003.004c1.05 1.291 2.158 2.298 3.379 3.07.156.098.316.178.468.254.137.068.266.133.377.201.015.008.03.02.045.027.13.064.251.095.377.095.316 0 .513-.198.578-.262l1.301-1.3c.13-.129.335-.285.575-.285.236 0 .43.149.548.278l.007.007 2.097 2.094c.391.387.391.786.003 1.189zM9.728 4.282a4.827 4.827 0 012.626 1.36 4.84 4.84 0 011.362 2.621.51.51 0 00.506.426c.03 0 .057-.004.087-.008a.513.513 0 00.422-.593 5.856 5.856 0 00-1.647-3.172 5.871 5.871 0 00-3.177-1.645.516.516 0 00-.593.418.507.507 0 00.414.593zm8.264 3.658a9.635 9.635 0 00-2.713-5.223 9.659 9.659 0 00-5.23-2.71.512.512 0 10-.168 1.011 8.65 8.65 0 014.676 2.42 8.601 8.601 0 012.423 4.67.51.51 0 00.506.425c.03 0 .057-.004.088-.008a.503.503 0 00.418-.585z"></path>
  </symbol>
  <symbol xmlns="http://www.w3.org/2000/svg" viewBox="0 0 33 32" id="icon-price">
    <path d="M10.794 8.44a.633.633 0 00-.444-.184.633.633 0 00-.444.184.634.634 0 00-.184.444c0 .166.067.328.184.445a.633.633 0 00.444.184.633.633 0 00.629-.629.633.633 0 00-.184-.444z"></path>
    <path d="M32.611 2.614l-.777-.774.777-.773a.623.623 0 000-.884.631.631 0 00-.89 0l-.776.772-.765-.762a.63.63 0 00-.445-.184L19.098.004h-.002c-.84 0-1.63.325-2.224.916L11.564 6.2a.623.623 0 000 .883.631.631 0 00.889 0l5.308-5.28a1.88 1.88 0 011.335-.55h.001l10.377.007.583.58-2.332 2.319a2.59 2.59 0 00-3.144.386 2.537 2.537 0 00-.754 1.81 2.57 2.57 0 002.574 2.56c.66 0 1.32-.25 1.821-.749.85-.845.98-2.14.39-3.122l2.333-2.32.593.59-.006 10.307c0 .501-.197.972-.553 1.327L15.642 30.2a1.88 1.88 0 01-1.335.55 1.88 1.88 0 01-1.335-.55L2.425 19.711a1.86 1.86 0 01-.553-1.327c0-.502.197-.973.553-1.328L9.2 10.318a.623.623 0 000-.884.631.631 0 00-.889 0l-6.775 6.738a3.099 3.099 0 00-.92 2.212c0 .835.326 1.62.92 2.212l10.548 10.49a3.14 3.14 0 002.223.914c.806 0 1.61-.305 2.224-.915l15.337-15.253a3.1 3.1 0 00.921-2.21l.006-10.566a.623.623 0 00-.184-.442zm-5.278 4.668c-.249.247-.58.384-.931.384-.353 0-.683-.137-.932-.384a1.307 1.307 0 010-1.853 1.317 1.317 0 011.309-.33l-.726.722a.623.623 0 00.444 1.067c.161 0 .322-.06.445-.183l.723-.72c.13.446.02.947-.332 1.297z"></path>
    <path d="M27.463 13.202L20.14 5.877c-.97-.97-2.55-.97-3.52 0L5.03 17.469a2.473 2.473 0 00-.73 1.76c0 .665.26 1.29.73 1.76l7.324 7.326c.47.47 1.095.729 1.76.729.664 0 1.29-.259 1.76-.729l11.59-11.593c.47-.47.73-1.095.73-1.76s-.26-1.29-.73-1.76zm-.889 2.631l-11.59 11.593c-.233.233-.543.36-.871.36-.33 0-.639-.127-.871-.36L5.917 20.1a1.224 1.224 0 01-.36-.87c0-.33.127-.639.36-.872L17.508 6.766a1.229 1.229 0 011.741 0l7.325 7.325c.233.233.361.542.361.871 0 .33-.128.639-.36.871z"></path>
    <path d="M21.11 13.122a.629.629 0 00-.89-.89l-.361.363c-.966-.597-2.206-.517-2.99.267a2.281 2.281 0 00-.658 1.747c.031.647.31 1.265.784 1.74.505.505.562 1.272.126 1.708-.437.436-1.203.38-1.709-.126-.505-.506-.562-1.272-.126-1.709a.629.629 0 00-.888-.889c-.784.784-.864 2.024-.267 2.99l-.43.43a.629.629 0 10.89.89l.429-.43a2.6 2.6 0 001.362.393c.6 0 1.186-.219 1.628-.66.926-.926.87-2.49-.126-3.486a1.39 1.39 0 01-.418-.912 1.038 1.038 0 01.292-.797c.436-.437 1.202-.38 1.708.126s.562 1.272.126 1.708a.629.629 0 00.889.89c.784-.785.864-2.025.267-2.991l.362-.362zm-6.36 10.421l-3.229-3.229a.629.629 0 00-.889.89l3.229 3.228a.627.627 0 00.888 0 .629.629 0 000-.889zm-4.951-4.951a.632.632 0 00-.444-.184.634.634 0 00-.445.184.633.633 0 00.444 1.074.632.632 0 00.63-.629.633.633 0 00-.185-.445z"></path>
  </symbol>
  <symbol xmlns="http://www.w3.org/2000/svg" viewBox="0 0 27 26" id="icon-vkontakte">
    <path d="M19.475 15.127c-1.109-1.024-1.188-1.024-.238-2.206 1.188-1.497 2.773-3.388 1.347-3.388H17.97c-.475 0-.554.316-.713.71-.633 1.496-1.9 3.466-2.376 3.15-.475-.314-.237-1.496-.237-3.387a.61.61 0 00-.159-.63c-.158-.158-.396-.315-.633-.315-.396-.079-.792-.158-1.188-.158-1.505 0-2.535.63-1.98.71 1.03.157.95 2.363.712 3.308-.396 1.655-1.98-1.26-2.693-2.757-.079-.394-.396-.63-.792-.63H5.852c-.317 0-.554.078-.554.315 0 .393 1.98 4.254 3.801 6.224 1.822 1.89 3.644 1.733 4.911 1.733a.607.607 0 00.396-.158.6.6 0 00.158-.394c0-1.26.476-1.89 1.347-1.024.95.945 1.188 1.576 2.376 1.576h2.138c.555 0 .713-.158.713-.394.08-.552-.871-1.576-1.663-2.285zM13.852.001c7.366.157 13.226 6.066 13.147 13.235-.079 7.17-6.178 12.842-13.543 12.763C6.01 25.92.07 20.17.07 13 .15 5.753 6.327-.077 13.852.002z"></path>
  </symbol>
  <symbol xmlns="http://www.w3.org/2000/svg" viewBox="0 0 30 37" id="icon-watch">
    <path d="M3.846 12L2.34 10.484a2.12 2.12 0 010-2.984 2.093 2.093 0 012.968 0l1.608 1.617a14.654 14.654 0 015.593-2.378V4.642H11.11a.701.701 0 01-.7-.703V2.11c0-1.164.942-2.11 2.1-2.11h5.596c1.158 0 2.1.946 2.1 2.11v1.829a.701.701 0 01-.7.703h-1.4V6.74A14.652 14.652 0 0123.7 9.118L25.309 7.5a2.093 2.093 0 012.968 0 2.12 2.12 0 010 2.984l-1.507 1.514A14.804 14.804 0 0130 21.241c0 8.144-6.591 14.77-14.692 14.77-8.101 0-14.692-6.626-14.692-14.77a14.8 14.8 0 013.23-9.242zm.473-3.504a.698.698 0 00-.99 0 .707.707 0 000 .994l1.446 1.453a14.89 14.89 0 011.023-.96l-1.48-1.487zM18.806 2.11a.702.702 0 00-.7-.703H12.51c-.386 0-.7.315-.7.703v1.125h6.997V2.11zm-4.898 2.532v1.895a14.972 14.972 0 012.799 0V4.642h-2.799zm13.378 3.854a.698.698 0 00-.99 0l-1.478 1.487c.355.303.697.624 1.022.96l1.446-1.453a.707.707 0 000-.994zM15.308 34.604c7.33 0 13.293-5.994 13.293-13.363a13.389 13.389 0 00-5.252-10.643 13.245 13.245 0 00-6.046-2.572 13.444 13.444 0 00-3.99 0 13.246 13.246 0 00-6.047 2.572A13.388 13.388 0 002.014 21.24c0 7.37 5.964 13.364 13.294 13.364z"></path>
    <path d="M15.307 23.35a2.113 2.113 0 01-.7-4.1v-5.043c0-.388.314-.703.7-.703.387 0 .7.315.7.703v5.045a2.113 2.113 0 01-.7 4.099zm0-2.813a.703.703 0 000 1.407.702.702 0 000-1.407z"></path>
    <path d="M7.855 13.82l.034-.037a10.52 10.52 0 014.45-2.662.704.704 0 01.396 1.349 9.102 9.102 0 00-3.34 1.831l.471.474a.707.707 0 010 .995.695.695 0 01-.99 0l-.472-.475a9.083 9.083 0 00-2.165 5.242h.673c.387 0 .7.316.7.704a.701.701 0 01-.7.703H6.24a9.083 9.083 0 002.165 5.243l.473-.476a.698.698 0 01.99 0 .706.706 0 010 .995l-.474.476a8.988 8.988 0 005.215 2.176v-.677c0-.389.313-.704.7-.704.386 0 .7.315.7.704v.676a8.986 8.986 0 005.214-2.175l-.473-.476a.706.706 0 010-.995.698.698 0 01.99 0l.473.476a9.083 9.083 0 002.164-5.243h-.673a.701.701 0 01-.7-.703c0-.389.314-.704.7-.704h.673a9.083 9.083 0 00-2.164-5.242l-.473.475a.695.695 0 01-.99 0 .707.707 0 010-.995l.472-.474a9.099 9.099 0 00-3.341-1.832.704.704 0 01.396-1.349 10.517 10.517 0 014.409 2.624.698.698 0 01.042.038c.012.012.022.025.033.038a10.506 10.506 0 013.042 7.42c0 2.798-1.08 5.43-3.041 7.421l-.034.038-.038.034a10.394 10.394 0 01-7.381 3.058 10.394 10.394 0 01-7.381-3.058.402.402 0 01-.038-.034l-.034-.037a10.506 10.506 0 01-3.042-7.421c0-2.797 1.08-5.43 3.042-7.42z"></path>
    <path d="M15.308 12.097a.702.702 0 01-.7-.703c0-.388.313-.703.7-.703.386 0 .7.315.7.703a.702.702 0 01-.7.703z"></path>
  </symbol>
</svg>
